<svg width="24" height="24" viewBox="0 0 24 24" fill="none" xmlns="http://www.w3.org/2000/svg">
<g opacity="0.5">
<path d="M3.16183 4.61183C3.67259 4.10083 4.27902 3.69547 4.94648 3.41891C5.61394 3.14235 6.32935 3 7.05183 3C7.77432 3 8.48973 3.14235 9.15719 3.41891C9.82465 3.69547 10.4311 4.10083 10.9418 4.61183L12.0018 5.67183L13.0618 4.61183C14.0935 3.58013 15.4928 3.00053 16.9518 3.00053C18.4109 3.00053 19.8101 3.58013 20.8418 4.61183C21.8735 5.64352 22.4531 7.04279 22.4531 8.50183C22.4531 9.96086 21.8735 11.3601 20.8418 12.3918L19.7818 13.4518L12.0018 21.2318L4.22183 13.4518L3.16183 12.3918C2.65084 11.8811 2.24548 11.2746 1.96892 10.6072C1.69236 9.93972 1.55001 9.22431 1.55001 8.50183C1.55001 7.77934 1.69236 7.06393 1.96892 6.39647C2.24548 5.72901 2.65084 5.12258 3.16183 4.61183Z" stroke="black" stroke-width="2" stroke-linecap="round" stroke-linejoin="round"/>
</g>
</svg>
