<svg width="22" height="25" viewBox="0 0 22 25" fill="none" xmlns="http://www.w3.org/2000/svg">
<path fill-rule="evenodd" clip-rule="evenodd" d="M20.6 10.2403C20.9877 10.4692 21.3096 10.7982 21.5334 11.1944C21.7572 11.5906 21.875 12.0399 21.875 12.4973C21.875 12.9547 21.7572 13.4041 21.5334 13.8003C21.3096 14.1964 20.9877 14.5255 20.6 14.7544L3.82719 24.6471C3.43998 24.8782 2.99959 25 2.55115 25C2.1027 25 1.66232 24.8782 1.27511 24.6471C0.885679 24.4203 0.562344 24.0917 0.338274 23.6951C0.114204 23.2984 -0.00253371 22.848 4.17088e-05 22.3901V2.60495C0.000386168 2.1476 0.118512 1.6984 0.342554 1.30243C0.566596 0.906456 0.88867 0.57766 1.27645 0.34905C1.66422 0.120441 2.10405 6.25207e-05 2.55177 2.43465e-08C2.99949 -6.2472e-05 3.43935 0.120195 3.82719 0.348696L20.6 10.2403Z" fill="white"/>
</svg>
