<svg width="11" height="11" viewBox="0 0 11 11" fill="none" xmlns="http://www.w3.org/2000/svg">
<path fill-rule="evenodd" clip-rule="evenodd" d="M4.89822 0.0016773C5.01508 0.00149441 5.1408 0.00155083 5.27647 0.00161171L5.50008 0.0016773C7.29142 0.0016773 7.50373 0.00810688 8.21113 0.0402547C8.86527 0.0701662 9.22029 0.179469 9.45679 0.2713C9.76988 0.392903 9.9931 0.538267 10.2278 0.773087C10.4626 1.00791 10.608 1.23154 10.7298 1.54464C10.8217 1.78085 10.9311 2.13588 10.9609 2.79002C10.993 3.49727 11 3.70973 11 5.50022C11 7.29072 10.993 7.50317 10.9609 8.21043C10.931 8.86457 10.8217 9.21959 10.7298 9.45581C10.6082 9.7689 10.4626 9.99184 10.2278 10.2265C9.99296 10.4613 9.77002 10.6067 9.45679 10.7283C9.22057 10.8206 8.86527 10.9296 8.21113 10.9595C7.50387 10.9916 7.29142 10.9986 5.50008 10.9986C3.70861 10.9986 3.49629 10.9916 2.78904 10.9595C2.1349 10.9293 1.77987 10.82 1.54324 10.7282C1.23015 10.6066 1.00651 10.4612 0.771689 10.2264C0.53687 9.99156 0.391505 9.76848 0.269623 9.45525C0.177792 9.21903 0.0683492 8.86401 0.0385775 8.20987C0.00642958 7.50262 0 7.29016 0 5.49854C0 3.70693 0.00642958 3.49559 0.0385775 2.78834C0.068489 2.1342 0.177792 1.77918 0.269623 1.54268C0.391226 1.22959 0.53687 1.00595 0.771689 0.77113C1.00651 0.53631 1.23015 0.390946 1.54324 0.269064C1.77973 0.176813 2.1349 0.0677901 2.78904 0.0377388C3.40795 0.00978415 3.64781 0.00139775 4.89822 0V0.0016773ZM9.08494 1.11409C8.64046 1.11409 8.27985 1.47428 8.27985 1.9189C8.27985 2.36338 8.64046 2.724 9.08494 2.724C9.52942 2.724 9.89004 2.36338 9.89004 1.9189C9.89004 1.47442 9.52942 1.11381 9.08494 1.11381V1.11409ZM2.05563 5.50104C2.05563 3.59835 3.59823 2.0557 5.5009 2.05563C7.40364 2.05563 8.9459 3.59831 8.9459 5.50104C8.9459 7.40378 7.40378 8.94576 5.50104 8.94576C3.59831 8.94576 2.05563 7.40378 2.05563 5.50104Z" fill="black"/>
</svg>
