<svg width="13" height="13" viewBox="0 0 13 13" fill="none" xmlns="http://www.w3.org/2000/svg">
<path d="M6.50058 0C4.73528 0 4.51374 0.0077188 3.8204 0.0392711C3.12842 0.0709588 2.65608 0.180512 2.24279 0.341252C1.81527 0.507274 1.45262 0.729359 1.09133 1.09079C0.729765 1.45208 0.50768 1.81473 0.341117 2.24211C0.17997 2.65554 0.0702817 3.12801 0.0391357 3.81972C0.00812505 4.51306 0 4.73474 0 6.50004C0 8.26535 0.0078542 8.48621 0.0392711 9.17955C0.0710942 9.87153 0.180647 10.3439 0.341252 10.7572C0.50741 11.1847 0.729494 11.5473 1.09092 11.9086C1.45208 12.2702 1.81473 12.4928 2.24197 12.6588C2.65554 12.8196 3.12801 12.9291 3.81986 12.9608C4.5132 12.9924 4.7346 13.0001 6.49977 13.0001C8.26521 13.0001 8.48608 12.9924 9.17941 12.9608C9.8714 12.9291 10.3443 12.8196 10.7578 12.6588C11.1852 12.4928 11.5473 12.2702 11.9085 11.9086C12.27 11.5473 12.4921 11.1847 12.6587 10.7573C12.8185 10.3439 12.9282 9.8714 12.9607 9.17968C12.9918 8.48635 12.9999 8.26535 12.9999 6.50004C12.9999 4.73474 12.9918 4.5132 12.9607 3.81986C12.9282 3.12787 12.8185 2.65554 12.6587 2.24224C12.4921 1.81473 12.27 1.45208 11.9085 1.09079C11.5469 0.729224 11.1854 0.507139 10.7574 0.341252C10.3431 0.180512 9.87045 0.0709588 9.17847 0.0392711C8.48513 0.0077188 8.2644 0 6.49855 0H6.50058Z" fill="white"/>
</svg>
