<svg width="13" height="10" viewBox="0 0 13 10" fill="none" xmlns="http://www.w3.org/2000/svg">
<path d="M12.7283 1.45905C12.5788 0.884714 12.1383 0.432448 11.5789 0.278955C10.5652 0 6.49997 0 6.49997 0C6.49997 0 2.43476 0 1.42098 0.278955C0.861616 0.432448 0.421095 0.884714 0.271596 1.45905C0 2.49997 0 4.67186 0 4.67186C0 4.67186 0 6.84367 0.271596 7.88466C0.421095 8.459 0.861616 8.91127 1.42098 9.06484C2.43476 9.34372 6.49997 9.34372 6.49997 9.34372C6.49997 9.34372 10.5652 9.34372 11.5789 9.06484C12.1383 8.91127 12.5788 8.459 12.7283 7.88466C12.9999 6.84367 12.9999 4.67186 12.9999 4.67186C12.9999 4.67186 12.9999 2.49997 12.7283 1.45905Z" fill="white"/>
</svg>
